PathFileType	4	(X/Y/Z)	E:/New_biomech_experiments/Elbow Flexion/Shreyas_25_06_24_elbow_flexion/Session 2024-06-26/Shreyas_ElbFlex_pp_staticPose.trc	
DataRate	CameraRate	NumFrames	NumMarkers	Units	OrigDataRate	OrigDataStartFrame	OrigNumFrames	
120.00	120.00	16	19	m	120.00	390	778	
Frame#	Time	MarkerSet_LFHD			MarkerSet_LBHD			MarkerSet_C7			MarkerSet_RBHD			MarkerSet_PRSHO			MarkerSet_RSHO			MarkerSet_STRN			MarkerSet_RFHD			MarkerSet_CLAV			MarkerSet_RWRA			MarkerSet_RWRB			MarkerSet_ARSHO			MarkerSet_RFRM			MarkerSet_RELB			MarkerSet_RUPA			MarkerSet_MRHAND			MarkerSet_T10			MarkerSet_RHAND			MarkerSet_MRELB			
		X1	Y1	Z1	X2	Y2	Z2	X3	Y3	Z3	X4	Y4	Z4	X5	Y5	Z5	X6	Y6	Z6	X7	Y7	Z7	X8	Y8	Z8	X9	Y9	Z9	X10	Y10	Z10	X11	Y11	Z11	X12	Y12	Z12	X13	Y13	Z13	X14	Y14	Z14	X15	Y15	Z15	X16	Y16	Z16	X17	Y17	Z17	X18	Y18	Z18	X19	Y19	Z19	

390	3.242	0.05603	1.83909	-0.04538	-0.04806	1.73706	-0.06710	-0.07625	1.54489	-0.00611	-0.06478	1.75428	0.06943	-0.10184	1.44753	0.12357	0.01712	1.50124	0.20459	0.15993	1.34472	-0.00964	0.03767	1.82184	0.08127	0.12044	1.46807	-0.00172	0.26571	1.19052	0.14771	0.28558	1.16664	0.24273	0.10075	1.45783	0.10968	0.15929	1.18504	0.25545	0.02528	1.18861	0.27519	0.01807	1.30739	0.25212	0.37827	1.15038	0.24728	-0.09781	1.33405	-0.01605	0.40422	1.18881	0.13222	0.01424	1.13677	0.16665 
391	3.250	0.05607	1.83910	-0.04537	-0.04801	1.73707	-0.06709	-0.07618	1.54491	-0.00609	-0.06473	1.75427	0.06943	-0.10176	1.44756	0.12361	0.01722	1.50131	0.20464	0.16001	1.34472	-0.00962	0.03772	1.82186	0.08128	0.12052	1.46809	-0.00169	0.26578	1.19056	0.14777	0.28566	1.16667	0.24277	0.10085	1.45787	0.10971	0.15938	1.18516	0.25557	0.02536	1.18865	0.27526	0.01817	1.30744	0.25218	0.37835	1.15042	0.24733	-0.09774	1.33405	-0.01600	0.40427	1.18883	0.13224	0.01431	1.13680	0.16674 
392	3.258	0.05612	1.83911	-0.04536	-0.04795	1.73708	-0.06708	-0.07611	1.54491	-0.00607	-0.06469	1.75426	0.06943	-0.10167	1.44759	0.12365	0.01732	1.50137	0.20468	0.16008	1.34472	-0.00960	0.03777	1.82188	0.08128	0.12060	1.46812	-0.00168	0.26586	1.19060	0.14783	0.28574	1.16671	0.24282	0.10095	1.45791	0.10974	0.15946	1.18526	0.25567	0.02544	1.18870	0.27532	0.01827	1.30749	0.25224	0.37843	1.15045	0.24737	-0.09768	1.33406	-0.01594	0.40432	1.18885	0.13225	0.01440	1.13684	0.16682 
393	3.267	0.05616	1.83912	-0.04536	-0.04790	1.73708	-0.06707	-0.07603	1.54490	-0.00604	-0.06464	1.75426	0.06943	-0.10158	1.44762	0.12369	0.01743	1.50143	0.20471	0.16016	1.34474	-0.00957	0.03782	1.82189	0.08128	0.12068	1.46814	-0.00166	0.26593	1.19064	0.14788	0.28583	1.16674	0.24286	0.10106	1.45795	0.10977	0.15955	1.18534	0.25575	0.02553	1.18875	0.27538	0.01838	1.30754	0.25230	0.37852	1.15049	0.24741	-0.09761	1.33406	-0.01589	0.40437	1.18889	0.13225	0.01449	1.13688	0.16690 
394	3.275	0.05621	1.83913	-0.04536	-0.04785	1.73709	-0.06706	-0.07596	1.54489	-0.00601	-0.06459	1.75426	0.06943	-0.10149	1.44765	0.12373	0.01753	1.50150	0.20472	0.16025	1.34478	-0.00952	0.03786	1.82190	0.08127	0.12076	1.46816	-0.00165	0.26601	1.19067	0.14792	0.28592	1.16677	0.24290	0.10116	1.45799	0.10979	0.15964	1.18540	0.25582	0.02562	1.18881	0.27544	0.01849	1.30759	0.25235	0.37861	1.15052	0.24744	-0.09754	1.33407	-0.01584	0.40443	1.18891	0.13226	0.01458	1.13691	0.16698 
395	3.283	0.05625	1.83913	-0.04537	-0.04781	1.73709	-0.06706	-0.07588	1.54487	-0.00597	-0.06453	1.75425	0.06943	-0.10140	1.44768	0.12377	0.01763	1.50155	0.20474	0.16034	1.34484	-0.00946	0.03791	1.82191	0.08127	0.12084	1.46819	-0.00164	0.26610	1.19071	0.14796	0.28602	1.16681	0.24293	0.10126	1.45803	0.10981	0.15973	1.18546	0.25587	0.02571	1.18886	0.27550	0.01860	1.30764	0.25240	0.37870	1.15056	0.24746	-0.09747	1.33407	-0.01579	0.40451	1.18893	0.13227	0.01467	1.13695	0.16705 
396	3.292	0.05630	1.83914	-0.04538	-0.04777	1.73709	-0.06706	-0.07581	1.54485	-0.00593	-0.06447	1.75423	0.06944	-0.10131	1.44771	0.12381	0.01774	1.50157	0.20476	0.16044	1.34492	-0.00938	0.03796	1.82192	0.08125	0.12093	1.46821	-0.00163	0.26618	1.19075	0.14800	0.28612	1.16685	0.24296	0.10135	1.45807	0.10983	0.15982	1.18551	0.25591	0.02581	1.18891	0.27555	0.01871	1.30769	0.25245	0.37880	1.15060	0.24748	-0.09741	1.33407	-0.01574	0.40458	1.18895	0.13228	0.01477	1.13698	0.16712 
397	3.300	0.05634	1.83914	-0.04540	-0.04773	1.73708	-0.06707	-0.07574	1.54484	-0.00590	-0.06441	1.75421	0.06945	-0.10122	1.44774	0.12385	0.01784	1.50160	0.20477	0.16055	1.34503	-0.00929	0.03801	1.82193	0.08124	0.12101	1.46824	-0.00162	0.26627	1.19079	0.14803	0.28622	1.16689	0.24299	0.10145	1.45812	0.10985	0.15992	1.18556	0.25595	0.02591	1.18896	0.27561	0.01882	1.30774	0.25250	0.37890	1.15064	0.24749	-0.09734	1.33407	-0.01570	0.40465	1.18899	0.13227	0.01488	1.13702	0.16719 
398	3.308	0.05638	1.83914	-0.04542	-0.04769	1.73708	-0.06707	-0.07567	1.54483	-0.00588	-0.06435	1.75420	0.06945	-0.10114	1.44776	0.12388	0.01793	1.50163	0.20479	0.16066	1.34512	-0.00922	0.03807	1.82194	0.08122	0.12109	1.46826	-0.00161	0.26636	1.19083	0.14805	0.28632	1.16693	0.24301	0.10155	1.45816	0.10987	0.16002	1.18561	0.25598	0.02601	1.18901	0.27566	0.01893	1.30779	0.25254	0.37901	1.15069	0.24750	-0.09727	1.33408	-0.01565	0.40474	1.18903	0.13226	0.01499	1.13705	0.16726 
399	3.317	0.05643	1.83914	-0.04544	-0.04765	1.73708	-0.06707	-0.07560	1.54482	-0.00584	-0.06429	1.75420	0.06945	-0.10105	1.44778	0.12392	0.01803	1.50166	0.20481	0.16076	1.34518	-0.00916	0.03812	1.82195	0.08120	0.12118	1.46829	-0.00160	0.26645	1.19087	0.14806	0.28643	1.16698	0.24302	0.10165	1.45821	0.10989	0.16013	1.18565	0.25600	0.02611	1.18906	0.27570	0.01904	1.30783	0.25258	0.37912	1.15075	0.24750	-0.09720	1.33408	-0.01561	0.40483	1.18906	0.13226	0.01509	1.13709	0.16732 
400	3.325	0.05647	1.83914	-0.04547	-0.04761	1.73708	-0.06707	-0.07553	1.54480	-0.00580	-0.06422	1.75421	0.06945	-0.10097	1.44781	0.12395	0.01811	1.50169	0.20483	0.16085	1.34523	-0.00912	0.03818	1.82196	0.08117	0.12126	1.46832	-0.00160	0.26654	1.19092	0.14807	0.28654	1.16703	0.24303	0.10174	1.45825	0.10991	0.16024	1.18570	0.25602	0.02622	1.18911	0.27575	0.01916	1.30788	0.25262	0.37923	1.15080	0.24750	-0.09713	1.33408	-0.01557	0.40493	1.18911	0.13227	0.01521	1.13713	0.16738 
401	3.333	0.05652	1.83914	-0.04550	-0.04757	1.73708	-0.06707	-0.07546	1.54479	-0.00577	-0.06416	1.75423	0.06944	-0.10089	1.44783	0.12398	0.01820	1.50172	0.20484	0.16093	1.34526	-0.00910	0.03824	1.82197	0.08114	0.12134	1.46835	-0.00159	0.26664	1.19097	0.14808	0.28665	1.16709	0.24304	0.10184	1.45830	0.10993	0.16035	1.18574	0.25603	0.02633	1.18915	0.27579	0.01927	1.30792	0.25266	0.37934	1.15086	0.24750	-0.09706	1.33408	-0.01553	0.40503	1.18916	0.13228	0.01532	1.13716	0.16743 
402	3.342	0.05656	1.83914	-0.04553	-0.04754	1.73708	-0.06708	-0.07539	1.54479	-0.00574	-0.06408	1.75425	0.06945	-0.10081	1.44785	0.12401	0.01828	1.50176	0.20486	0.16101	1.34527	-0.00908	0.03831	1.82198	0.08112	0.12142	1.46837	-0.00158	0.26674	1.19102	0.14809	0.28676	1.16714	0.24305	0.10193	1.45834	0.10995	0.16047	1.18578	0.25604	0.02645	1.18920	0.27582	0.01938	1.30796	0.25269	0.37946	1.15093	0.24749	-0.09699	1.33408	-0.01550	0.40514	1.18923	0.13229	0.01544	1.13719	0.16747 
403	3.350	0.05661	1.83914	-0.04557	-0.04750	1.73708	-0.06709	-0.07533	1.54478	-0.00572	-0.06401	1.75427	0.06945	-0.10074	1.44786	0.12403	0.01835	1.50180	0.20487	0.16108	1.34529	-0.00907	0.03837	1.82199	0.08109	0.12150	1.46840	-0.00158	0.26685	1.19107	0.14809	0.28688	1.16720	0.24306	0.10201	1.45839	0.10997	0.16058	1.18582	0.25604	0.02657	1.18924	0.27585	0.01948	1.30799	0.25272	0.37957	1.15099	0.24748	-0.09693	1.33408	-0.01547	0.40523	1.18933	0.13230	0.01555	1.13722	0.16751 
404	3.358	0.05666	1.83914	-0.04561	-0.04747	1.73706	-0.06709	-0.07527	1.54478	-0.00570	-0.06393	1.75431	0.06945	-0.10066	1.44788	0.12406	0.01843	1.50184	0.20489	0.16116	1.34532	-0.00904	0.03844	1.82200	0.08106	0.12158	1.46842	-0.00157	0.26696	1.19113	0.14809	0.28700	1.16726	0.24306	0.10210	1.45843	0.10999	0.16070	1.18586	0.25604	0.02669	1.18927	0.27588	0.01959	1.30802	0.25274	0.37969	1.15106	0.24748	-0.09686	1.33409	-0.01544	0.40532	1.18947	0.13231	0.01567	1.13725	0.16754 
405	3.367	0.05670	1.83914	-0.04565	-0.04744	1.73706	-0.06710	-0.07520	1.54479	-0.00568	-0.06386	1.75435	0.06945	-0.10059	1.44790	0.12408	0.01850	1.50188	0.20491	0.16124	1.34535	-0.00902	0.03851	1.82202	0.08103	0.12166	1.46845	-0.00156	0.26707	1.19119	0.14810	0.28712	1.16732	0.24306	0.10218	1.45847	0.11000	0.16082	1.18590	0.25604	0.02681	1.18930	0.27590	0.01969	1.30804	0.25276	0.37981	1.15114	0.24747	-0.09680	1.33410	-0.01541	0.40541	1.18963	0.13233	0.01579	1.13728	0.16756 
